<?xml version="1.0" encoding="UTF-8"?>
<svg width="839px" height="516px" viewBox="0 0 839 516" version="1.1" xmlns="http://www.w3.org/2000/svg" xmlns:xlink="http://www.w3.org/1999/xlink">
    <!-- Generator: Sketch 51.2 (57519) - http://www.bohemiancoding.com/sketch -->
    <title>Artboard</title>
    <desc>Created with Sketch.</desc>
    <defs>
        <radialGradient cx="50%" cy="35.6944665%" fx="50%" fy="35.6944665%" r="65.3633101%" gradientTransform="translate(0.500000,0.356945),scale(0.865549,1.000000),rotate(90.000000),scale(1.000000,1.007200),translate(-0.500000,-0.356945)" id="radialGradient-1">
            <stop stop-color="#FFFFFF" stop-opacity="0.5" offset="0%"></stop>
            <stop stop-color="#000000" stop-opacity="0.5" offset="100%"></stop>
        </radialGradient>
        <path d="M254.44572,415 C207.623521,371.285638 178.35138,309.01232 178.35138,239.902126 C178.35138,107.629929 285.579183,0.402126255 417.85138,0.402126255 C550.123578,0.402126255 657.35138,107.629929 657.35138,239.902126 C657.35138,309.01232 628.07924,371.285638 581.25704,415 L254.44572,415 Z" id="path-2"></path>
        <path d="M23.2212909,47.2391309 C20.0617324,54.4988056 17.4375568,60.3660009 17.0451507,70.5807428 C16.9189079,73.8669766 18.6869454,81.3307075 18.5715588,84.5704409 C18.279095,92.7820079 16.80862,101.061071 17.0451507,106.047859 C17.9321612,124.748741 24.445917,118.387635 20.2182773,141.676099 C19.1201457,147.72529 13.4243771,162.187464 11.7834293,168.744432 C8.76087978,180.822062 9.61223536,184.436159 8.5238825,188.840772 C6.84466086,195.636657 0.1193447,194.268091 0.1193447,204.147436 C0.1193447,209.113703 2.28282425,228.651604 13.8001239,238.442427 C14.3675162,238.924765 15.6962365,238.584805 17.7862845,237.422545 C18.1624429,239.094097 18.424201,239.983208 18.5715588,240.089878 C25.4553275,243.433738 31.5337577,247.449414 37.1274281,249.130606 C40.8556354,250.251127 43.511878,249.445393 44.4420088,249.775911 C48.7770618,251.316357 45.6006105,253.352686 57.877935,255.484752 C71.0639449,257.77462 71.0639449,247.815606 89.3761195,254.216206 C93.7604119,255.748634 94.8655754,257.687172 95.4440729,260.22965 C95.6243987,261.022175 95.0974982,261.89563 95.4440729,262.805231 C95.9050606,264.015114 96.6258009,265.332544 97.9060669,266.768108 C100.040406,269.161346 103.843336,269.420068 106.278052,271.506968 C107.317478,272.397904 106.615749,274.722036 107.857672,275.298056 C111.028365,276.768662 115.074932,275.466639 118.198107,277.035638 C121.326164,278.607089 122.507025,283.060929 125.780283,284.301889 C128.371257,285.284181 131.364748,282.150539 133.994306,283.024306 C137.461905,284.176544 137.954942,290.360573 142.47565,290.307916 C146.444428,290.261689 150.711485,286.644139 154.249894,288.533882 C158.449215,290.776595 155.718419,292.091631 161.623768,293.661571 C166.74042,295.021835 169.1281,292.091631 174.166991,293.661571 C178.057533,294.873726 179.444792,297.768007 180.64803,298.490276 C182.699669,299.721817 186.759082,298.490276 193.08077,298.490276 C198.024511,298.490276 199.097991,293.18025 203.461129,290.776595 C209.800443,287.284263 211.44711,295.413457 214.454099,295.413457 C217.461088,295.413457 223.925852,296.676906 229.153835,293.661571 C234.697201,290.464333 239.958891,284.975598 242.036836,283.697815 C244.865083,281.95865 247.25327,285.032924 251.24666,286.864951 C255.570673,288.848656 265.458477,283.051208 266.332415,280.665552 C267.206352,278.279895 268.280847,273.782866 271.537539,268.842444 C272.511681,267.364665 277.098272,265.988767 278.160662,264.5731 C284.086075,256.677306 284.833512,252.764197 282.909066,243.332451 C276.148722,210.199865 241.998398,209.92738 216.16405,199.469357 C208.336343,196.300617 196.45564,187.514219 193.08077,179.864712 C192.720477,179.048071 188.781475,174.311625 184.118635,170.684117 C180.359635,167.75976 175.912726,165.964525 174.166991,164.377494 C170.25276,160.819102 155.737928,141.744032 155.718419,141.676099 C154.249894,136.562297 139.193677,116.462121 135.672869,108.649892 C129.066454,93.9910927 126.243418,67.1584798 129.066454,50.4910577 C131.584606,35.6237007 134.17298,36.4492008 132.586565,22.6857847 C131.244521,11.0424778 119.679387,13.9795136 115.401659,13.9004719 C111.132435,9.28374836 114.049621,3.07372004 103.513161,0.911494579 C96.1049167,-0.608778261 96.4634852,8.32857402 91.1677753,11.573402 C85.8720654,14.81823 84.549294,15.2675449 80.2889654,15.1416018 C74.3903913,14.9672292 62.6164155,8.15935874 56.2509694,13.8258305 C53.5733464,16.2094301 51.0747024,21.9614956 52.366146,25.7215834 C53.1006177,27.860026 57.4852534,32.8881644 55.5253858,31.724139 C49.5193585,28.1569754 29.973732,31.724139 23.2212909,47.2391309 Z" id="path-3"></path>
        <path d="M29.1793804,447.981614 C20.7500049,447.981614 16.5353804,450.765586 16.5353804,456.333614 C16.5353804,458.808293 17.5793699,460.702941 19.6673804,462.017614 C21.7553908,463.332287 26.6466752,465.226935 34.3413804,467.701614 C42.0360855,470.176293 47.4300316,472.979598 50.5233804,476.111614 C53.6167292,479.243629 55.1633804,484.057581 55.1633804,490.553614 C55.1633804,498.828322 52.6500722,505.092259 47.6233804,509.345614 C42.5966886,513.598968 36.023421,515.725614 27.9033804,515.725614 C21.8713502,515.725614 14.4860907,514.797623 5.74738035,512.941614 L1.57138035,512.129614 L3.19538035,499.717614 C13.5580988,501.109621 21.4846862,501.805614 26.9753804,501.805614 C35.1727547,501.805614 39.2713804,498.402981 39.2713804,491.597614 C39.2713804,489.122935 38.3240565,487.189621 36.4293804,485.797614 C34.5347042,484.405607 30.7647419,482.897622 25.1193804,481.273614 C16.1486688,478.721601 9.82673205,475.686298 6.15338035,472.167614 C2.48002865,468.64893 0.643380353,463.757645 0.643380353,457.493614 C0.643380353,449.605574 3.04068971,443.7283 7.83538035,439.861614 C12.630071,435.994928 19.2033386,434.061614 27.5553804,434.061614 C33.2780756,434.061614 40.5473363,434.834939 49.3633804,436.381614 L53.5393804,437.193614 L52.2633804,449.837614 C41.3593258,448.600274 33.6647361,447.981614 29.1793804,447.981614 Z M82.1913804,514.333614 L66.6473804,514.333614 L66.6473804,433.133614 L82.1913804,433.133614 L82.1913804,459.117614 C87.527407,456.3336 92.3220258,454.941614 96.5753804,454.941614 C104.308752,454.941614 109.644699,457.222924 112.58338,461.785614 C115.522062,466.348303 116.99138,473.385566 116.99138,482.897614 L116.99138,514.333614 L101.44738,514.333614 L101.44738,483.245614 C101.44738,478.373589 100.867386,474.758292 99.7073804,472.399614 C98.5473746,470.040935 96.2273978,468.861614 92.7473804,468.861614 C89.7313653,468.861614 86.7153954,469.325609 83.6993804,470.253614 L82.1913804,470.717614 L82.1913804,514.333614 Z M133.92738,462.945614 C138.026068,457.609587 144.869999,454.941614 154.45938,454.941614 C164.048762,454.941614 170.892693,457.590254 174.99138,462.887614 C179.090068,468.184974 181.13938,475.628233 181.13938,485.217614 C181.13938,505.556382 172.246136,515.725614 154.45938,515.725614 C136.672625,515.725614 127.77938,505.556382 127.77938,485.217614 C127.77938,475.628233 129.828693,468.204307 133.92738,462.945614 Z M145.87538,498.325614 C147.499388,501.109628 150.360693,502.501614 154.45938,502.501614 C158.558068,502.501614 161.400039,501.109628 162.98538,498.325614 C164.570722,495.5416 165.36338,491.17231 165.36338,485.217614 C165.36338,479.262917 164.570722,474.932294 162.98538,472.225614 C161.400039,469.518934 158.558068,468.165614 154.45938,468.165614 C150.360693,468.165614 147.518722,469.518934 145.93338,472.225614 C144.348039,474.932294 143.55538,479.262917 143.55538,485.217614 C143.55538,491.17231 144.328706,495.5416 145.87538,498.325614 Z M188.09938,456.333614 L203.41138,456.333614 L210.48738,501.109614 L213.27138,501.109614 L222.08738,457.493614 L238.09538,457.493614 L246.91138,501.109614 L249.69538,501.109614 L256.77138,456.333614 L272.08338,456.333614 L261.06338,514.333614 L236.70338,514.333614 L230.09138,478.837614 L223.47938,514.333614 L199.11938,514.333614 L188.09938,456.333614 Z M340.75538,514.333614 L324.74738,514.333614 L324.74738,482.433614 L300.38738,435.453614 L318.13538,435.453614 L332.63538,466.889614 L347.13538,435.453614 L364.88338,435.453614 L340.75538,482.433614 L340.75538,514.333614 Z M367.31938,462.945614 C371.418068,457.609587 378.261999,454.941614 387.85138,454.941614 C397.440762,454.941614 404.284693,457.590254 408.38338,462.887614 C412.482068,468.184974 414.53138,475.628233 414.53138,485.217614 C414.53138,505.556382 405.638136,515.725614 387.85138,515.725614 C370.064625,515.725614 361.17138,505.556382 361.17138,485.217614 C361.17138,475.628233 363.220693,468.204307 367.31938,462.945614 Z M379.26738,498.325614 C380.891388,501.109628 383.752693,502.501614 387.85138,502.501614 C391.950068,502.501614 394.792039,501.109628 396.37738,498.325614 C397.962722,495.5416 398.75538,491.17231 398.75538,485.217614 C398.75538,479.262917 397.962722,474.932294 396.37738,472.225614 C394.792039,469.518934 391.950068,468.165614 387.85138,468.165614 C383.752693,468.165614 380.910722,469.518934 379.32538,472.225614 C377.740039,474.932294 376.94738,479.262917 376.94738,485.217614 C376.94738,491.17231 377.720706,495.5416 379.26738,498.325614 Z M460.11938,456.333614 L475.66338,456.333614 L475.66338,514.333614 L460.23538,514.333614 L460.23538,511.085614 C454.667353,514.178963 449.834068,515.725614 445.73538,515.725614 C437.692673,515.725614 432.279394,513.502303 429.49538,509.055614 C426.711366,504.608925 425.31938,497.165666 425.31938,486.725614 L425.31938,456.333614 L440.86338,456.333614 L440.86338,486.957614 C440.86338,492.680309 441.327376,496.585603 442.25538,498.673614 C443.183385,500.761624 445.426029,501.805614 448.98338,501.805614 C452.386064,501.805614 455.595365,501.264286 458.61138,500.181614 L460.11938,499.717614 L460.11938,456.333614 Z M490.04738,514.333614 L490.04738,456.333614 L505.47538,456.333614 L505.47538,462.481614 C511.971413,458.614928 518.158018,456.10162 524.03538,454.941614 L524.03538,470.601614 C517.771349,471.916287 512.396736,473.269607 507.91138,474.661614 L505.59138,475.473614 L505.59138,514.333614 L490.04738,514.333614 Z M560.11138,435.453614 L591.08338,435.453614 C599.280755,435.453614 605.428693,437.096931 609.52738,440.383614 C613.626068,443.670297 615.67538,448.98691 615.67538,456.333614 C615.67538,460.741636 615.018054,464.240934 613.70338,466.831614 C612.388707,469.422293 610.146063,471.722937 606.97538,473.733614 C610.455398,475.202955 613.026705,477.3296 614.68938,480.113614 C616.352055,482.897628 617.18338,486.764256 617.18338,491.713614 C617.18338,499.369652 614.940736,505.053595 610.45538,508.765614 C605.970025,512.477632 599.667421,514.333614 591.54738,514.333614 L560.11138,514.333614 L560.11138,435.453614 Z M590.73538,481.389614 L576.11938,481.389614 L576.11938,500.645614 L590.73538,500.645614 C594.215398,500.645614 596.786705,499.949621 598.44938,498.557614 C600.112055,497.165607 600.94338,494.613632 600.94338,490.901614 C600.94338,484.560249 597.540748,481.389614 590.73538,481.389614 Z M590.27138,449.141614 L576.11938,449.141614 L576.11938,467.933614 L590.38738,467.933614 C596.419411,467.933614 599.43538,464.801645 599.43538,458.537614 C599.43538,452.273583 596.380744,449.141614 590.27138,449.141614 Z M632.49538,462.945614 C636.594068,457.609587 643.437999,454.941614 653.02738,454.941614 C662.616762,454.941614 669.460693,457.590254 673.55938,462.887614 C677.658068,468.184974 679.70738,475.628233 679.70738,485.217614 C679.70738,505.556382 670.814136,515.725614 653.02738,515.725614 C635.240625,515.725614 626.34738,505.556382 626.34738,485.217614 C626.34738,475.628233 628.396693,468.204307 632.49538,462.945614 Z M644.44338,498.325614 C646.067388,501.109628 648.928693,502.501614 653.02738,502.501614 C657.126068,502.501614 659.968039,501.109628 661.55338,498.325614 C663.138722,495.5416 663.93138,491.17231 663.93138,485.217614 C663.93138,479.262917 663.138722,474.932294 661.55338,472.225614 C659.968039,469.518934 657.126068,468.165614 653.02738,468.165614 C648.928693,468.165614 646.086722,469.518934 644.50138,472.225614 C642.916039,474.932294 642.12338,479.262917 642.12338,485.217614 C642.12338,491.17231 642.896706,495.5416 644.44338,498.325614 Z M694.20738,462.945614 C698.306068,457.609587 705.149999,454.941614 714.73938,454.941614 C724.328762,454.941614 731.172693,457.590254 735.27138,462.887614 C739.370068,468.184974 741.41938,475.628233 741.41938,485.217614 C741.41938,505.556382 732.526136,515.725614 714.73938,515.725614 C696.952625,515.725614 688.05938,505.556382 688.05938,485.217614 C688.05938,475.628233 690.108693,468.204307 694.20738,462.945614 Z M706.15538,498.325614 C707.779388,501.109628 710.640693,502.501614 714.73938,502.501614 C718.838068,502.501614 721.680039,501.109628 723.26538,498.325614 C724.850722,495.5416 725.64338,491.17231 725.64338,485.217614 C725.64338,479.262917 724.850722,474.932294 723.26538,472.225614 C721.680039,469.518934 718.838068,468.165614 714.73938,468.165614 C710.640693,468.165614 707.798722,469.518934 706.21338,472.225614 C704.628039,474.932294 703.83538,479.262917 703.83538,485.217614 C703.83538,491.17231 704.608706,495.5416 706.15538,498.325614 Z M784.91938,469.557614 L770.65138,469.557614 L770.65138,493.337614 C770.65138,495.657625 770.70938,497.300942 770.82538,498.267614 C770.941381,499.234285 771.36671,500.06561 772.10138,500.761614 C772.836051,501.457617 773.976706,501.805614 775.52338,501.805614 L784.33938,501.573614 L785.03538,513.985614 C779.854021,515.14562 775.910061,515.725614 773.20338,515.725614 C766.243346,515.725614 761.487393,514.159629 758.93538,511.027614 C756.383368,507.895598 755.10738,502.114989 755.10738,493.685614 L755.10738,469.557614 L748.26338,469.557614 L748.26338,456.333614 L755.10738,456.333614 L755.10738,440.209614 L770.65138,440.209614 L770.65138,456.333614 L784.91938,456.333614 L784.91938,469.557614 Z M836.65538,470.833614 C827.065999,469.596274 820.357399,468.977614 816.52938,468.977614 C812.701361,468.977614 810.226719,469.32561 809.10538,470.021614 C807.984041,470.717617 807.42338,471.819606 807.42338,473.327614 C807.42338,474.835621 808.177373,475.879611 809.68538,476.459614 C811.193388,477.039617 815.060016,477.890275 821.28538,479.011614 C827.510745,480.132953 831.938034,481.969601 834.56738,484.521614 C837.196727,487.073627 838.51138,491.210919 838.51138,496.933614 C838.51138,509.461676 830.739458,515.725614 815.19538,515.725614 C810.091355,515.725614 803.90475,515.029621 796.63538,513.637614 L792.92338,512.941614 L793.38738,499.949614 C802.976762,501.186953 809.646695,501.805614 813.39738,501.805614 C817.148066,501.805614 819.70004,501.438284 821.05338,500.703614 C822.40672,499.968943 823.08338,498.866955 823.08338,497.397614 C823.08338,495.928273 822.368054,494.845617 820.93738,494.149614 C819.506707,493.45361 815.794744,492.602952 809.80138,491.597614 C803.808017,490.592275 799.342062,488.890959 796.40338,486.493614 C793.464699,484.096269 791.99538,479.823645 791.99538,473.675614 C791.99538,467.527583 794.083359,462.887629 798.25938,459.755614 C802.435401,456.623598 807.810014,455.057614 814.38338,455.057614 C818.94607,455.057614 825.171341,455.792273 833.05938,457.261614 L836.88738,457.957614 L836.65538,470.833614 Z" id="path-5"></path>
    </defs>
    <g id="Artboard" stroke="none" stroke-width="1" fill="none" fill-rule="evenodd">
        <g id="Group-3">
            <g id="Oval-2" fill-rule="nonzero">
                <use fill-opacity="0.9" fill="#4C80DB" xlink:href="#path-2"></use>
                <use fill-opacity="0.3" fill="url(#radialGradient-1)" xlink:href="#path-2"></use>
            </g>
            <g id="Group" transform="translate(286.549399, 77.333614)">
                <mask id="mask-4" fill="white">
                    <use xlink:href="#path-3"></use>
                </mask>
                <path stroke="#FFFFFF" stroke-width="10" d="M47.1914917,25.5461907 C46.3306098,20.2067031 49.0026238,13.5841461 52.9264317,10.0912021 C57.1040179,6.37234669 62.3276035,5.87899751 68.9276391,7.28029918 C70.4152234,7.59613905 71.8442583,7.97195214 73.8748156,8.5556375 C78.5242374,9.89211763 79.4083963,10.1133863 80.43671,10.1437851 C83.5887107,10.236964 83.9993178,10.1017668 88.5555091,7.31006229 C89.2287137,6.89757122 89.8635782,6.0868854 90.8982645,4.26183146 C91.0215432,4.04438353 91.4548637,3.27045103 91.4969234,3.1957487 C92.944457,0.624781683 93.939671,-0.781871685 95.6145848,-2.10090496 C98.0715862,-4.03585022 101.105432,-4.68680026 104.518283,-3.98643653 C112.202118,-2.40960871 115.186398,0.757118349 117.403333,7.08317177 C117.600176,7.64486352 117.646342,7.77542901 117.733868,8.01433542 C117.834753,8.28970833 117.930735,8.53694234 118.024542,8.76103067 C120.370128,8.60123752 121.915885,8.56874185 123.686897,8.7180494 C131.254322,9.3560314 136.570919,13.5870368 137.553678,22.1132596 C138.318518,28.7488596 138.23592,32.6771019 137.335022,36.8589643 C137.479733,36.1872349 134.9428,45.919815 134.116209,50.6301912 C134.075938,50.8596788 134.035951,51.0915925 133.996242,51.3260382 C131.287726,67.3173254 134.14789,93.0971372 140.231318,106.595495 C141.411764,109.214757 143.945425,113.287504 149.330686,121.441824 C149.444471,121.614105 149.444471,121.614105 149.558324,121.786445 C156.908915,132.912604 159.186512,136.503442 160.213295,139.336689 C160.252881,139.388897 160.294443,139.443662 160.337805,139.500749 C160.787333,140.09256 161.374352,140.860437 162.02301,141.704316 C163.731461,143.926947 165.594975,146.323676 167.407421,148.620696 C172.305087,154.827797 176.113313,159.389573 177.530355,160.677793 C177.760337,160.886868 178.438421,161.317431 179.786672,162.079432 C179.929955,162.160413 180.078591,162.244089 180.287393,162.361398 C180.54848,162.508028 180.54848,162.508028 180.819331,162.660283 C181.267885,162.912631 181.614696,163.10931 181.962247,163.309214 C182.888337,163.84188 183.693701,164.326419 184.474976,164.828198 C185.446041,165.451873 186.343514,166.080115 187.188789,166.737706 C191.638219,170.19919 196.681879,175.640014 197.655339,177.846467 C200.13409,183.464823 210.255197,191.683245 218.040209,194.834702 C222.859288,196.785517 227.126804,198.141379 236.508611,200.860368 C236.663505,200.905258 236.663505,200.905258 236.818476,200.950168 C253.142288,205.680788 260.172652,208.239575 267.86973,213.145133 C278.412348,219.86423 285.13289,229.221458 287.808127,242.332851 C290.042174,253.281958 288.87436,258.626893 282.159794,267.574257 C281.35885,268.641538 280.400666,269.347092 279.055353,270.109378 C278.520679,270.412337 278.144215,270.606829 277.116264,271.124319 C276.21681,271.577121 275.805113,271.794704 275.465414,272.002571 C275.455539,272.008613 275.445957,272.014513 275.43667,272.020263 C274.331272,273.762985 273.461305,275.549607 272.707919,277.507588 C272.251093,278.694835 271.119653,282.133347 271.027307,282.385432 C268.956829,288.037378 255.696461,294.40742 249.161766,291.409532 C248.226753,290.980581 247.3528,290.500842 246.370166,289.9014 C246.466265,289.960024 244.680124,288.838049 244.028164,288.454617 C242.562365,289.667451 239.051324,292.696294 237.9141,293.610004 C235.71315,295.378372 233.6757,296.825551 231.651945,297.992789 C229.864774,299.023573 227.929548,299.725278 225.860239,300.152086 C222.95548,300.75121 220.44533,300.784848 216.662929,300.533801 C214.946152,300.419855 214.835563,300.413457 214.454099,300.413457 C212.238436,300.413457 210.590469,299.477528 209.058431,297.970991 C208.720156,297.638346 208.40504,297.294961 208.025881,296.858064 C207.895165,296.707443 207.368924,296.091141 207.239178,295.942093 C206.77349,295.407129 206.463308,295.101222 206.287313,294.955486 C206.188252,294.994512 206.051458,295.058109 205.87375,295.156008 C205.195963,295.529401 204.566761,296.112884 203.550596,297.302353 C203.405328,297.472396 202.798477,298.192739 202.638521,298.380079 C199.719683,301.798599 197.204884,303.490276 193.08077,303.490276 C191.45192,303.490276 189.99256,303.570876 187.92616,303.746077 C187.668626,303.767912 186.811712,303.842208 186.766408,303.8461 C186.306763,303.88558 185.964514,303.91365 185.635467,303.938221 C184.755614,304.003924 184.048326,304.037628 183.378353,304.037628 C181.324661,304.037628 179.649464,303.722516 178.074695,302.777228 C176.935315,302.09329 174.654789,299.584551 174.665367,299.594139 C174.056469,299.042215 173.452047,298.675881 172.679685,298.435241 C171.551511,298.083741 170.860404,298.103145 168.965919,298.473966 C168.862009,298.494335 168.862009,298.494335 168.755013,298.515363 C165.340241,299.186354 163.331515,299.289251 160.339137,298.493726 C158.795822,298.083435 157.569233,297.639581 156.541256,297.103582 C154.872305,296.23337 153.914487,295.283455 152.96658,293.87856 C152.574927,293.29809 152.608474,293.324343 151.975009,292.987248 C151.905621,292.986459 151.795458,292.994774 151.640422,293.019346 C151.084351,293.107479 150.486299,293.293738 148.923812,293.85433 C148.295566,294.079733 147.965626,294.195913 147.568706,294.328527 C145.700821,294.9526 144.182508,295.288374 142.533885,295.307577 C140.060096,295.336392 137.915766,294.45357 136.161108,292.879852 C135.066841,291.898426 134.406111,291.015954 133.290246,289.29759 C133.217089,289.184876 133.217089,289.184876 133.146546,289.076195 C132.842049,288.60732 132.629954,288.292158 132.463047,288.063699 C132.311881,288.119348 132.130927,288.188608 131.911913,288.274608 C131.83754,288.303836 131.83754,288.303836 131.760607,288.334123 C130.42608,288.859517 129.798376,289.078684 128.850971,289.279434 C127.216303,289.62581 125.608072,289.583872 124.007786,288.97717 C121.381587,287.981524 120.059523,286.640166 117.809447,283.624936 C117.779265,283.584488 117.779265,283.584488 117.749392,283.544455 C116.680586,282.112165 116.248756,281.651823 115.953562,281.503525 C115.510495,281.28094 114.809089,281.185389 112.80095,281.124838 C112.776711,281.124107 112.776711,281.124107 112.752365,281.123373 C109.479489,281.024584 107.867789,280.814377 105.753882,279.83392 C104.129407,279.080468 103.086415,277.789857 102.524412,276.272774 C102.359269,275.826985 102.246537,275.39498 102.157977,274.93407 C102.145802,274.870702 102.134842,274.81153 102.124505,274.753169 C101.750269,274.571001 101.247537,274.353917 100.544124,274.06714 C100.495151,274.047176 100.495151,274.047176 100.445655,274.027003 C97.2915135,272.741408 95.8188581,271.939904 94.1744576,270.096034 C92.5978896,268.328226 91.5102935,266.523852 90.7717368,264.585477 C90.4399105,263.714583 90.3090676,262.846112 90.3242601,261.973467 C90.3318287,261.538733 90.3622831,261.231562 90.4269587,260.798615 C90.144308,259.913022 89.6740635,259.616969 87.7263564,258.936193 C80.1969194,256.304451 77.3579426,256.472293 71.8330398,258.60086 C71.7237099,258.642986 71.7237099,258.642986 71.6131004,258.685592 C66.1449646,260.791221 62.6932438,261.395807 57.0224444,260.411022 C49.313099,259.072226 46.4497815,257.779092 43.6070838,255.021392 C43.4412645,254.860531 43.3460728,254.768811 43.2533874,254.703001 C43.1693672,254.706506 43.0672528,254.710859 42.9417561,254.716247 C40.2475572,254.831913 38.2561267,254.690786 35.6882619,253.919008 C33.3713048,253.222641 30.9893962,252.205456 28.1191657,250.755282 C27.0332834,250.206644 25.9209099,249.619801 24.4237658,248.812184 C24.6245155,248.920476 21.5650824,247.263872 20.7132847,246.808789 C19.0706985,245.931217 17.7098948,245.230009 16.3868722,244.587338 L15.9937316,244.396366 L15.6396877,244.140079 C15.4133237,243.976218 15.2172349,243.810925 15.043922,243.64231 C13.4657503,243.7827 11.9398333,243.423516 10.5616671,242.251941 C4.56229679,237.151894 0.441116651,229.720864 -2.15581385,220.897461 C-3.94870186,214.805895 -4.8806553,208.273571 -4.8806553,204.147436 C-4.8806553,197.792882 -3.03643577,194.569242 1.21657373,190.846424 C1.26374739,190.805136 1.26374739,190.805136 1.31019525,190.764489 C3.00168772,189.284125 3.38616287,188.789546 3.66986903,187.641375 C3.73615245,187.373123 3.79446204,187.10109 3.84678055,186.817233 C3.9849939,186.06735 4.07644753,185.295425 4.20148706,183.90457 C4.78359698,177.429572 5.23935571,174.298156 6.93301387,167.530566 C7.61443926,164.807698 8.35199762,162.554771 11.139124,154.383078 C11.2228866,154.137459 11.2228866,154.137459 11.3065436,153.891985 C13.7349213,146.764973 14.8824675,143.075792 15.2986816,140.783027 C17.1388976,130.645975 17.0130345,127.034429 15.5300534,122.927614 C15.4382922,122.6735 14.7863373,120.930584 14.5786416,120.346386 C13.1293275,116.269817 12.3360182,112.298744 12.0507656,106.28475 C11.9189244,103.505137 12.040454,101.956021 12.8454874,93.9350071 C13.2421533,89.9827952 13.4495495,87.4599698 13.5567744,84.8594091 C13.5632361,84.7026903 13.5692214,84.5470587 13.5747271,84.3924733 C13.606195,83.5089433 13.4202292,81.9856449 12.865768,78.3750848 C12.8605698,78.3412343 12.8605698,78.3412343 12.8553677,78.3073568 C12.1875508,73.9581694 11.9785313,72.2189134 12.0488361,70.388806 C12.337746,62.8681773 13.6773031,57.2279939 16.4054497,50.4836717 C16.9843274,49.0526132 17.3429744,48.2163305 18.6366749,45.2438125 C22.3000262,36.82658 29.3601028,30.7861295 37.9263403,27.6335133 C41.021954,26.4942404 44.1992982,25.7881902 47.1914914,25.5461885 Z"></path>
                <path d="M255.555192,193.154785 C255.663041,198.546649 280.789559,223.554203 274.818363,238.504939 C268.847167,253.455675 206.280635,269.070396 203.076164,269.684601 C173.263642,275.398798 153.161299,269.151216 129.316238,253.173015 C126.813332,251.495857 119.238689,248.419664 116.578352,247.005451 C104.762517,240.724255 96.5522323,236.946517 83.9520433,232.588643 C71.627797,228.326206 61.7569602,219.634149 50.0346726,214.770424 C40.4958726,210.812655 36.9232135,212.72122 28.3427727,205.255996 C17.8054985,196.088271 15.4104254,193.083177 7.11486111,176.113616 C2.04016414,165.732722 -11.5114629,182.913881 -12.4402035,189.611944 C-18.8195814,235.619918 -1.70832348,259.544005 36.0830228,285.161545 C52.5784246,296.343249 76.5492509,290.960825 94.7482167,296.672368 C132.578362,308.544937 152.97456,323.851947 193.831952,320.744652 C210.073717,319.50943 225.096824,311.539881 240.938325,307.749423 C252.673016,304.941617 264.838078,304.081422 276.494765,300.965593 C316.391017,290.301339 296.577643,251.992443 287.436713,228.75585 L255.555192,193.154785 Z" id="Path-2" fill-opacity="0.6" fill="#204585" fill-rule="nonzero" mask="url(#mask-4)"></path>
            </g>
            <g id="Show-Your-Boots">
                <use fill="#0E0E0E" xlink:href="#path-5"></use>
                <use fill="#204585" xlink:href="#path-5"></use>
            </g>
        </g>
    </g>
</svg>