<?xml version="1.0" encoding="UTF-8"?>
<svg width="284px" height="299px" viewBox="0 0 284 299" version="1.1" xmlns="http://www.w3.org/2000/svg" xmlns:xlink="http://www.w3.org/1999/xlink">
    <!-- Generator: Sketch 51.2 (57519) - http://www.bohemiancoding.com/sketch -->
    <title>Path 6</title>
    <desc>Created with Sketch.</desc>
    <defs>
        <path d="M23.1019462,46.5001852 C19.9423877,53.7598598 17.3182121,59.6270551 16.925806,69.841797 C16.7995632,73.1280309 18.5676007,80.5917618 18.4522141,83.8314951 C18.1597503,92.0430621 16.6892753,100.322125 16.925806,105.308913 C17.8128165,124.009795 24.3265723,117.648689 20.0989326,140.937153 C19.000801,146.986344 13.3050324,161.448518 11.6640846,168.005486 C8.64153508,180.083116 9.49289066,183.697213 8.4045378,188.101826 C6.72531616,194.897711 0,193.529146 0,203.40849 C2.86901863e-16,208.374757 2.16347955,227.912658 13.6807792,237.703481 C14.2481715,238.185819 15.5768918,237.845859 17.6669398,236.683599 C18.0430982,238.355151 18.3048563,239.244262 18.4522141,239.350932 C25.3359828,242.694793 31.414413,246.710468 37.0080834,248.39166 C40.7362907,249.512182 43.3925333,248.706447 44.3226641,249.036966 C48.6577171,250.577411 45.4812658,252.61374 57.7585903,254.745807 C70.9446002,257.035674 70.9446002,247.07666 89.2567748,253.47726 C93.6410672,255.009688 94.7462307,256.948226 95.3247282,259.490704 C95.505054,260.28323 94.9781535,261.156684 95.3247282,262.066285 C95.7857159,263.276168 96.5064562,264.593598 97.7867222,266.029162 C99.9210613,268.422401 103.723992,268.681123 106.158708,270.768022 C107.198133,271.658958 106.496404,273.983091 107.738328,274.55911 C110.90902,276.029717 114.955588,274.727694 118.078762,276.296692 C121.20682,277.868143 122.38768,282.321983 125.660938,283.562943 C128.251912,284.545236 131.245403,281.411593 133.874961,282.285361 C137.34256,283.437598 137.835597,289.621627 142.356305,289.568971 C146.325083,289.522743 150.59214,285.905194 154.130549,287.794936 C158.32987,290.037649 155.599075,291.352686 161.504423,292.922625 C166.621075,294.28289 169.008755,291.352686 174.047646,292.922625 C177.938188,294.13478 179.325447,297.029061 180.528685,297.751331 C182.580324,298.982871 186.639738,297.751331 192.961425,297.751331 C197.905166,297.751331 198.978647,292.441304 203.341784,290.037649 C209.681099,286.545317 211.327766,294.674512 214.334755,294.674512 C217.341744,294.674512 223.806507,295.93796 229.034491,292.922625 C234.577856,289.725388 239.839546,284.236652 241.917491,282.958869 C244.745738,281.219704 247.133925,284.293978 251.127315,286.126005 C255.451329,288.10971 265.339132,282.312262 266.21307,279.926606 C267.087008,277.540949 268.161502,273.04392 271.418194,268.103499 C272.392336,266.625719 276.978927,265.249821 278.041317,263.834154 C283.96673,255.938361 284.714167,252.025251 282.789722,242.593505 C276.029377,209.46092 241.879053,209.188434 216.044706,198.730411 C208.216998,195.561671 196.336295,186.775273 192.961425,179.125766 C192.601133,178.309125 188.662131,173.572679 183.999291,169.945171 C180.24029,167.020814 175.793381,165.225579 174.047646,163.638548 C170.133416,160.080156 155.618583,141.005087 155.599075,140.937153 C154.130549,135.823351 139.074333,115.723175 135.553525,107.910946 C128.94711,93.252147 126.124073,66.4195341 128.94711,49.752112 C131.465261,34.884755 134.053635,35.710255 132.46722,21.946839 C131.125176,10.3035321 119.560043,13.2405678 115.282314,13.1615261 C111.013091,8.54480262 113.930277,2.33477429 103.393816,0.172548835 C95.985572,-1.34772401 96.3441405,7.58962828 91.0484306,10.8344562 C85.7527207,14.0792842 84.4299493,14.5285991 80.1696207,14.402656 C74.2710466,14.2282834 62.4970708,7.42041299 56.1316247,13.0868847 C53.4540017,15.4704844 50.9553577,21.2225499 52.2468013,24.9826377 C52.981273,27.1210803 57.3659087,32.1492187 55.4060411,30.9851933 C49.4000138,27.4180297 29.8543873,30.9851933 23.1019462,46.5001852 Z" id="path-1"></path>
    </defs>
    <g id="Page-1" stroke="none" stroke-width="1" fill="none" fill-rule="evenodd">
        <mask id="mask-2" fill="white">
            <use xlink:href="#path-1"></use>
        </mask>
        <use id="Path-6" fill="#204585" fill-rule="nonzero" xlink:href="#path-1"></use>
    </g>
</svg>